<svg width="427" height="107" viewBox="0 0 427 107" fill="none" xmlns="http://www.w3.org/2000/svg">
<path d="M24.5909 105V109H27.496L28.3947 106.237L24.5909 105ZM0.863637 105L-2.9174 103.695L-4.74886 109H0.863637V105ZM37.017 0.272724V-3.72728H34.1663L33.236 -1.03255L37.017 0.272724ZM65.5511 0.272724L69.3327 -1.0309L68.4032 -3.72728H65.5511V0.272724ZM101.653 105V109H107.263L105.435 103.696L101.653 105ZM77.9261 105L74.1216 106.235L75.0193 109H77.9261V105ZM51.6932 24.2045L55.4977 22.9693L54.6 20.2045H51.6932V24.2045ZM50.875 24.2045V20.2045H47.9699L47.0712 22.9671L50.875 24.2045ZM23.108 63.8352V59.8352H19.108V63.8352H23.108ZM79.1534 63.8352H83.1534V59.8352H79.1534V63.8352ZM79.1534 81.1193V85.1193H83.1534V81.1193H79.1534ZM23.108 81.1193H19.108V85.1193H23.108V81.1193ZM24.5909 101H0.863637V109H24.5909V101ZM4.64468 106.305L40.7981 1.578L33.236 -1.03255L-2.9174 103.695L4.64468 106.305ZM37.017 4.27272H65.5511V-3.72728H37.017V4.27272ZM61.7695 1.57635L97.8718 106.304L105.435 103.696L69.3327 -1.0309L61.7695 1.57635ZM101.653 101H77.9261V109H101.653V101ZM81.7306 103.765L55.4977 22.9693L47.8887 25.4398L74.1216 106.235L81.7306 103.765ZM51.6932 20.2045H50.875V28.2045H51.6932V20.2045ZM47.0712 22.9671L20.7871 103.763L28.3947 106.237L54.6788 25.442L47.0712 22.9671ZM23.108 67.8352H79.1534V59.8352H23.108V67.8352ZM75.1534 63.8352V81.1193H83.1534V63.8352H75.1534ZM79.1534 77.1193H23.108V85.1193H79.1534V77.1193ZM27.108 81.1193V63.8352H19.108V81.1193H27.108ZM114.259 105H110.259V109H114.259V105ZM114.259 0.272724V-3.72728H110.259V0.272724H114.259ZM136.043 0.272724H140.043V-3.72728H136.043V0.272724ZM136.043 39.6477H132.043V43.6477H136.043V39.6477ZM136.707 39.6477V43.6477H139.29L140.353 41.2941L136.707 39.6477ZM140.849 33.2045L137.773 30.6485L137.769 30.6533L140.849 33.2045ZM148.009 27.6818L149.797 31.2595L149.806 31.2554L149.814 31.2513L148.009 27.6818ZM174.906 29.9318L172.799 33.3319L172.808 33.3372L172.817 33.3426L174.906 29.9318ZM186.514 43.3807L182.912 45.1203L182.916 45.1283L186.514 43.3807ZM186.616 88.0227L182.995 86.3245L182.991 86.3334L186.616 88.0227ZM175.162 101.676L177.314 105.048L177.32 105.044L175.162 101.676ZM148.213 104.182L146.492 107.792L146.5 107.796L146.508 107.8L148.213 104.182ZM141.003 98.9148L137.99 101.545L138 101.557L138.011 101.569L141.003 98.9148ZM136.707 92.4205L140.351 90.7695L139.286 88.4205H136.707V92.4205ZM135.736 92.4205V88.4205H131.736V92.4205H135.736ZM135.736 105V109H139.736V105H135.736ZM143.151 86.0795L140.668 89.2157L140.681 89.2264L140.695 89.237L143.151 86.0795ZM161.099 86.0284L163.582 89.1646L163.596 89.1541L163.609 89.1434L161.099 86.0284ZM166.673 77.8466L162.921 76.4621L162.917 76.4723L162.913 76.4826L166.673 77.8466ZM166.724 53.7614L170.48 52.3854L170.48 52.3854L166.724 53.7614ZM161.151 45.6818L163.633 42.5456L163.633 42.5456L161.151 45.6818ZM143.099 45.5795L140.671 42.4009L140.661 42.4091L140.65 42.4173L143.099 45.5795ZM137.526 53.5568L133.782 52.1483L133.782 52.1483L137.526 53.5568ZM118.259 105V0.272724H110.259V105H118.259ZM114.259 4.27272H136.043V-3.72728H114.259V4.27272ZM132.043 0.272724V39.6477H140.043V0.272724H132.043ZM136.043 43.6477H136.707V35.6477H136.043V43.6477ZM140.353 41.2941C141.132 39.5684 142.303 37.7209 143.93 35.7558L137.769 30.6533C135.782 33.0518 134.192 35.4997 133.062 38.0014L140.353 41.2941ZM143.926 35.7606C145.368 34.0257 147.293 32.5118 149.797 31.2595L146.22 24.1041C142.861 25.7837 140.013 27.9516 137.773 30.6485L143.926 35.7606ZM149.814 31.2513C152.069 30.1107 155.089 29.4318 159.054 29.4318V21.4318C154.224 21.4318 149.88 22.253 146.203 24.1124L149.814 31.2513ZM159.054 29.4318C164.041 29.4318 168.595 30.7264 172.799 33.3319L177.013 26.5318C171.536 23.1373 165.521 21.4318 159.054 21.4318V29.4318ZM172.817 33.3426C176.897 35.8425 180.289 39.6887 182.912 45.1203L190.116 41.6411C186.944 35.0727 182.597 29.953 176.996 26.5211L172.817 33.3426ZM182.916 45.1283C185.472 50.3912 186.861 57.23 186.861 65.8295H194.861C194.861 56.429 193.351 48.302 190.112 41.6331L182.916 45.1283ZM186.861 65.8295C186.861 74.1806 185.51 80.9614 182.995 86.3245L190.238 89.721C193.382 83.0158 194.861 75.0012 194.861 65.8295H186.861ZM182.991 86.3334C180.466 91.7524 177.114 95.6741 173.004 98.3083L177.32 105.044C182.891 101.474 187.176 96.293 190.242 89.712L182.991 86.3334ZM173.01 98.3044C168.876 100.943 164.243 102.278 159.003 102.278V110.278C165.694 110.278 171.834 108.546 177.314 105.048L173.01 98.3044ZM159.003 102.278C155.201 102.278 152.22 101.648 149.918 100.563L146.508 107.8C150.138 109.511 154.35 110.278 159.003 110.278V102.278ZM149.934 100.571C147.414 99.3697 145.466 97.9179 143.995 96.2603L138.011 101.569C140.29 104.139 143.148 106.199 146.492 107.792L149.934 100.571ZM144.016 96.2841C142.351 94.3763 141.151 92.5357 140.351 90.7695L133.064 94.0714C134.241 96.6688 135.905 99.1578 137.99 101.545L144.016 96.2841ZM136.707 88.4205H135.736V96.4205H136.707V88.4205ZM131.736 92.4205V105H139.736V92.4205H131.736ZM135.736 101H114.259V109H135.736V101ZM131.582 65.7273C131.582 70.7563 132.279 75.3225 133.777 79.3453L141.274 76.5524C140.182 73.6207 139.582 70.0392 139.582 65.7273H131.582ZM133.777 79.3453C135.28 83.3792 137.542 86.7412 140.668 89.2157L145.633 82.9434C143.85 81.5315 142.362 79.4731 141.274 76.5524L133.777 79.3453ZM140.695 89.237C143.941 91.762 147.82 92.9432 152.099 92.9432V84.9432C149.357 84.9432 147.269 84.2152 145.606 82.9221L140.695 89.237ZM152.099 92.9432C156.42 92.9432 160.328 91.7406 163.582 89.1646L158.617 82.8922C156.961 84.2026 154.869 84.9432 152.099 84.9432V92.9432ZM163.609 89.1434C166.725 86.6333 168.967 83.2541 170.434 79.2106L162.913 76.4826C161.857 79.3936 160.383 81.4689 158.59 82.9134L163.609 89.1434ZM170.426 79.2311C171.917 75.1908 172.616 70.6671 172.616 65.7273H164.616C164.616 69.9238 164.021 73.4797 162.921 76.4621L170.426 79.2311ZM172.616 65.7273C172.616 60.8307 171.936 56.3597 170.48 52.3854L162.969 55.1373C164.035 58.0494 164.616 61.5556 164.616 65.7273H172.616ZM170.48 52.3854C169.009 48.3697 166.759 45.0204 163.633 42.5456L158.668 48.818C160.451 50.2296 161.917 52.2667 162.969 55.1373L170.48 52.3854ZM163.633 42.5456C160.373 39.9642 156.444 38.767 152.099 38.767V46.767C154.913 46.767 157.019 47.5131 158.668 48.818L163.633 42.5456ZM152.099 38.767C147.812 38.767 143.924 39.9163 140.671 42.4009L145.528 48.7582C147.184 47.4928 149.296 46.767 152.099 46.767V38.767ZM140.65 42.4173C137.536 44.8298 135.285 48.1526 133.782 52.1483L141.269 54.9654C142.357 52.0747 143.822 50.0793 145.549 48.7417L140.65 42.4173ZM133.782 52.1483C132.278 56.1448 131.582 60.6997 131.582 65.7273H139.582C139.582 61.4139 140.182 57.8552 141.269 54.9654L133.782 52.1483ZM220.277 101.472L218.24 104.914L218.252 104.921L218.264 104.928L220.277 101.472ZM206.93 87.2557L203.373 89.0842L203.377 89.0923L206.93 87.2557ZM206.93 44.7614L210.484 46.598L210.488 46.5899L206.93 44.7614ZM220.277 30.5454L222.299 33.9969L222.305 33.9932L220.277 30.5454ZM261.442 30.5454L259.405 33.9879L259.417 33.995L259.429 34.002L261.442 30.5454ZM274.839 44.7614L271.282 46.5899L271.286 46.598L274.839 44.7614ZM274.839 87.2557L278.393 89.0923L278.397 89.0842L274.839 87.2557ZM261.442 101.472L263.464 104.923L263.47 104.919L261.442 101.472ZM250.038 86.5909L252.62 89.6461L252.633 89.6356L252.645 89.6249L250.038 86.5909ZM255.51 78.1023L251.737 76.7729L251.732 76.7889L251.726 76.805L255.51 78.1023ZM255.51 53.6591L251.726 54.9564L251.732 54.9725L251.737 54.9885L255.51 53.6591ZM231.783 45.1705L229.218 42.101L229.207 42.1097L229.197 42.1185L231.783 45.1705ZM226.209 53.6591L222.436 52.3297L222.431 52.3457L222.425 52.3618L226.209 53.6591ZM226.209 78.1023L222.425 79.3996L222.431 79.4156L222.436 79.4317L226.209 78.1023ZM231.783 86.5909L229.197 89.6428L229.22 89.6621L229.243 89.6811L231.783 86.5909ZM240.885 102.534C233.518 102.534 227.37 100.973 222.29 98.015L218.264 104.928C224.775 108.72 232.366 110.534 240.885 110.534V102.534ZM222.314 98.0291C217.213 95.0105 213.283 90.8346 210.484 85.4191L203.377 89.0923C206.851 95.8131 211.819 101.114 218.24 104.914L222.314 98.0291ZM210.488 85.4272C207.689 79.9806 206.226 73.5532 206.226 66.0341H198.226C198.226 74.6059 199.899 82.3262 203.373 89.0842L210.488 85.4272ZM206.226 66.0341C206.226 58.4401 207.691 52.001 210.484 46.598L203.377 42.9248C199.897 49.6581 198.226 57.4008 198.226 66.0341H206.226ZM210.488 46.5899C213.287 41.1438 217.212 36.9767 222.299 33.9969L218.255 27.094C211.819 30.8642 206.846 36.1744 203.373 42.9329L210.488 46.5899ZM222.305 33.9932C227.382 31.0065 233.525 29.4318 240.885 29.4318V21.4318C232.359 21.4318 224.762 23.2662 218.249 27.0977L222.305 33.9932ZM240.885 29.4318C248.246 29.4318 254.367 31.0067 259.405 33.9879L263.479 27.103C256.994 23.266 249.41 21.4318 240.885 21.4318V29.4318ZM259.429 34.002C264.549 36.9836 268.486 41.15 271.282 46.5899L278.397 42.9329C274.92 36.1682 269.926 30.8573 263.455 27.0889L259.429 34.002ZM271.286 46.598C274.079 52.001 275.544 58.4401 275.544 66.0341H283.544C283.544 57.4008 281.873 49.6581 278.393 42.9248L271.286 46.598ZM275.544 66.0341C275.544 73.5532 274.081 79.9806 271.282 85.4272L278.397 89.0842C281.87 82.3262 283.544 74.6059 283.544 66.0341H275.544ZM271.286 85.4191C268.49 90.8284 264.548 95.0036 259.414 98.0239L263.47 104.919C269.926 101.121 274.916 95.8193 278.393 89.0923L271.286 85.4191ZM259.42 98.0202C254.379 100.973 248.253 102.534 240.885 102.534V110.534C249.403 110.534 256.982 108.72 263.464 104.923L259.42 98.0202ZM240.987 93.6591C245.405 93.6591 249.377 92.3867 252.62 89.6461L247.457 83.5357C245.859 84.8861 243.796 85.6591 240.987 85.6591V93.6591ZM252.645 89.6249C255.698 87.0019 257.879 83.5266 259.294 79.3996L251.726 76.805C250.687 79.8371 249.22 82.0209 247.432 83.5569L252.645 89.6249ZM259.283 79.4317C260.722 75.3481 261.402 70.8122 261.402 65.8807H253.402C253.402 70.0855 252.821 73.6973 251.737 76.7729L259.283 79.4317ZM261.402 65.8807C261.402 60.9492 260.722 56.4132 259.283 52.3297L251.737 54.9885C252.821 58.064 253.402 61.6758 253.402 65.8807H261.402ZM259.294 52.3618C257.879 48.2348 255.698 44.7595 252.645 42.1364L247.432 48.2045C249.22 49.7405 250.687 51.9243 251.726 54.9564L259.294 52.3618ZM252.645 42.1364C249.403 39.351 245.422 38.0511 240.987 38.0511V46.0511C243.779 46.0511 245.833 46.8308 247.432 48.2045L252.645 42.1364ZM240.987 38.0511C236.526 38.0511 232.516 39.3451 229.218 42.101L234.348 48.2399C236.027 46.8368 238.153 46.0511 240.987 46.0511V38.0511ZM229.197 42.1185C226.111 44.7333 223.891 48.202 222.436 52.3297L229.981 54.9885C231.05 51.9571 232.546 49.7667 234.368 48.2224L229.197 42.1185ZM222.425 52.3618C221.028 56.4351 220.368 60.9597 220.368 65.8807H228.368C228.368 61.6653 228.935 58.0421 229.993 54.9564L222.425 52.3618ZM220.368 65.8807C220.368 70.8017 221.028 75.3262 222.425 79.3996L229.993 76.805C228.935 73.7192 228.368 70.096 228.368 65.8807H220.368ZM222.436 79.4317C223.891 83.5593 226.111 87.0281 229.197 89.6428L234.368 83.539C232.546 81.9946 231.05 79.8043 229.981 76.7729L222.436 79.4317ZM229.243 89.6811C232.541 92.3923 236.543 93.6591 240.987 93.6591V85.6591C238.136 85.6591 236.001 84.8805 234.323 83.5007L229.243 89.6811ZM344.078 71.5568H340.078V71.5762L340.078 71.5957L344.078 71.5568ZM344.078 26.4545V22.4545H340.078V26.4545H344.078ZM365.862 26.4545H369.862V22.4545H365.862V26.4545ZM365.862 105V109H369.862V105H365.862ZM344.947 105H340.947V109H344.947V105ZM344.947 90.733H348.947V86.733H344.947V90.733ZM344.129 90.733V86.733H341.384L340.397 89.2952L344.129 90.733ZM335.283 101.83L333.039 98.5183L333.032 98.5226L333.026 98.527L335.283 101.83ZM306.442 102.443L308.495 99.0106L308.495 99.0106L306.442 102.443ZM297.084 92.267L293.512 94.067L293.517 94.078L293.523 94.0889L297.084 92.267ZM293.709 76.4659H289.709V76.477L289.709 76.4881L293.709 76.4659ZM293.709 26.4545V22.4545H289.709V26.4545H293.709ZM315.493 26.4545H319.493V22.4545H315.493V26.4545ZM315.493 72.5795H311.493V72.5943L311.493 72.609L315.493 72.5795ZM319.226 83.5739L322.182 80.8794L322.182 80.8794L319.226 83.5739ZM336.459 85.8239L338.311 89.3693L338.332 89.3585L338.352 89.3474L336.459 85.8239ZM341.982 80.4034L338.552 78.3454L338.541 78.3636L338.53 78.3818L341.982 80.4034ZM348.078 71.5568V26.4545H340.078V71.5568H348.078ZM344.078 30.4545H365.862V22.4545H344.078V30.4545ZM361.862 26.4545V105H369.862V26.4545H361.862ZM365.862 101H344.947V109H365.862V101ZM348.947 105V90.733H340.947V105H348.947ZM344.947 86.733H344.129V94.733H344.947V86.733ZM340.397 89.2952C338.921 93.1273 336.495 96.1757 333.039 98.5183L337.527 105.141C342.32 101.892 345.793 97.5432 347.862 92.1707L340.397 89.2952ZM333.026 98.527C329.718 100.787 325.548 102.023 320.3 102.023V110.023C326.846 110.023 332.665 108.463 337.539 105.132L333.026 98.527ZM320.3 102.023C315.677 102.023 311.786 100.979 308.495 99.0106L304.388 105.876C309.075 108.68 314.422 110.023 320.3 110.023V102.023ZM308.495 99.0106C305.191 97.0337 302.576 94.2191 300.645 90.4451L293.523 94.0889C296.092 99.1104 299.715 103.08 304.388 105.876L308.495 99.0106ZM300.656 90.4671C298.778 86.7399 297.74 82.111 297.709 76.4437L289.709 76.4881C289.746 83.0935 290.958 88.9987 293.512 94.067L300.656 90.4671ZM297.709 76.4659V26.4545H289.709V76.4659H297.709ZM293.709 30.4545H315.493V22.4545H293.709V30.4545ZM311.493 26.4545V72.5795H319.493V26.4545H311.493ZM311.493 72.609C311.532 77.9543 312.984 82.6638 316.269 86.2683L322.182 80.8794C320.558 79.0975 319.522 76.4776 319.493 72.5501L311.493 72.609ZM316.269 86.2683C319.586 89.9073 324.009 91.6136 329.095 91.6136V83.6136C325.931 83.6136 323.775 82.6268 322.182 80.8794L316.269 86.2683ZM329.095 91.6136C332.353 91.6136 335.444 90.8668 338.311 89.3693L334.607 82.2785C332.905 83.1673 331.088 83.6136 329.095 83.6136V91.6136ZM338.352 89.3474C341.327 87.7489 343.69 85.4017 345.433 82.425L338.53 78.3818C337.478 80.1778 336.159 81.4443 334.566 82.3003L338.352 89.3474ZM345.412 82.4614C347.311 79.2959 348.117 75.5761 348.078 71.518L340.078 71.5957C340.107 74.5603 339.516 76.7382 338.552 78.3454L345.412 82.4614ZM425.065 26.4545H429.065V22.4545H425.065V26.4545ZM425.065 42.8182V46.8182H429.065V42.8182H425.065ZM377.764 42.8182H373.764V46.8182H377.764V42.8182ZM377.764 26.4545V22.4545H373.764V26.4545H377.764ZM388.503 7.63636V3.63636H384.503V7.63636H388.503ZM410.287 7.63636H414.287V3.63636H410.287V7.63636ZM411.207 85.5682L407.696 87.4836L407.708 87.5065L407.721 87.5292L411.207 85.5682ZM413.764 87.8693L412.259 91.5752L412.278 91.5832L412.298 91.591L413.764 87.8693ZM420.719 88.2784L421.376 92.224L421.44 92.2134L421.503 92.2007L420.719 88.2784ZM423.071 87.8182L426.985 86.991L426.176 83.1663L422.334 83.8867L423.071 87.8182ZM426.497 104.028L427.69 107.846L431.163 106.761L430.411 103.201L426.497 104.028ZM421.895 105.205L421.02 101.301L420.988 101.309L420.956 101.316L421.895 105.205ZM414.685 106.074L414.54 102.076L414.529 102.077L414.685 106.074ZM400.878 103.977L399.365 107.68L399.376 107.685L400.878 103.977ZM391.724 96.5114L395.084 94.3398L395.084 94.3398L391.724 96.5114ZM388.503 83.7273L392.503 83.7538L392.503 83.7405V83.7273H388.503ZM421.065 26.4545V42.8182H429.065V26.4545H421.065ZM425.065 38.8182H377.764V46.8182H425.065V38.8182ZM381.764 42.8182V26.4545H373.764V42.8182H381.764ZM377.764 30.4545H425.065V22.4545H377.764V30.4545ZM388.503 11.6364H410.287V3.63636H388.503V11.6364ZM406.287 7.63636V80.8636H414.287V7.63636H406.287ZM406.287 80.8636C406.287 83.1993 406.629 85.5286 407.696 87.4836L414.719 83.6528C414.558 83.3578 414.287 82.5507 414.287 80.8636H406.287ZM407.721 87.5292C408.749 89.3558 410.274 90.7689 412.259 91.5752L415.27 84.1635C415.072 84.0833 414.894 83.9624 414.694 83.6071L407.721 87.5292ZM412.298 91.591C413.978 92.2526 415.786 92.5341 417.651 92.5341V84.5341C416.583 84.5341 415.801 84.3724 415.23 84.1477L412.298 91.591ZM417.651 92.5341C418.897 92.5341 420.139 92.4302 421.376 92.224L420.061 84.3328C419.253 84.4676 418.45 84.5341 417.651 84.5341V92.5341ZM421.503 92.2007C422.521 91.9971 423.287 91.8475 423.808 91.7497L422.334 83.8867C421.764 83.9935 420.962 84.1506 419.934 84.3561L421.503 92.2007ZM419.157 88.6453L422.584 104.856L430.411 103.201L426.985 86.991L419.157 88.6453ZM425.304 100.21C424.368 100.503 422.958 100.867 421.02 101.301L422.77 109.108C424.786 108.656 426.444 108.236 427.69 107.846L425.304 100.21ZM420.956 101.316C419.318 101.712 417.198 101.98 414.54 102.076L414.829 110.071C417.831 109.963 420.517 109.652 422.833 109.093L420.956 101.316ZM414.529 102.077C409.718 102.264 405.702 101.616 402.38 100.27L399.376 107.685C403.963 109.543 409.151 110.292 414.84 110.071L414.529 102.077ZM402.391 100.275C399.185 98.9642 396.797 96.9894 395.084 94.3398L388.365 98.683C391.016 102.783 394.73 105.786 399.365 107.68L402.391 100.275ZM395.084 94.3398C393.429 91.7806 392.472 88.3392 392.503 83.7538L384.503 83.7008C384.465 89.4108 385.656 94.4921 388.365 98.683L395.084 94.3398ZM392.503 83.7273V7.63636H384.503V83.7273H392.503Z" fill="white"/>
</svg>
