<svg width="1919" height="1080" viewBox="0 0 1919 1080" fill="none" xmlns="http://www.w3.org/2000/svg">
<path d="M277.526 893.737C279.091 886.069 283.448 879.256 289.751 874.618C296.054 869.98 303.855 867.847 311.641 868.634C319.427 869.42 326.644 873.07 331.892 878.875C337.14 884.68 340.046 892.227 340.046 900.053C340.046 907.878 337.14 915.425 331.892 921.23C326.644 927.036 319.427 930.685 311.641 931.472C303.855 932.258 296.054 930.126 289.751 925.488C283.448 920.849 279.091 914.036 277.526 906.369H-1V893.737H277.526ZM1288.05 1196.89C1289.62 1189.23 1293.97 1182.41 1300.28 1177.78C1306.58 1173.14 1314.38 1171.01 1322.17 1171.79C1329.95 1172.58 1337.17 1176.23 1342.42 1182.03C1347.67 1187.84 1350.57 1195.38 1350.57 1203.21C1350.57 1211.04 1347.67 1218.58 1342.42 1224.39C1337.17 1230.19 1329.95 1233.84 1322.17 1234.63C1314.38 1235.42 1306.58 1233.28 1300.28 1228.65C1293.97 1224.01 1289.62 1217.19 1288.05 1209.53H516.895V1196.89H1288.05ZM1653.11 906.369C1651.54 914.036 1647.18 920.849 1640.88 925.488C1634.58 930.126 1626.78 932.258 1618.99 931.472C1611.2 930.685 1603.99 927.036 1598.74 921.23C1593.49 915.425 1590.59 907.878 1590.59 900.053C1590.59 892.227 1593.49 884.68 1598.74 878.875C1603.99 873.07 1611.2 869.42 1618.99 868.634C1626.78 867.847 1634.58 869.98 1640.88 874.618C1647.18 879.256 1651.54 886.069 1653.11 893.737H1919V906.369H1653.11ZM1653.11 1007.42C1651.54 1015.09 1647.18 1021.9 1640.88 1026.54C1634.58 1031.18 1626.78 1033.31 1618.99 1032.52C1611.2 1031.74 1603.99 1028.09 1598.74 1022.28C1593.49 1016.48 1590.59 1008.93 1590.59 1001.11C1590.59 993.28 1593.49 985.733 1598.74 979.927C1603.99 974.122 1611.2 970.473 1618.99 969.686C1626.78 968.9 1634.58 971.032 1640.88 975.67C1647.18 980.309 1651.54 987.122 1653.11 994.79H1919V1007.42H1653.11ZM1692.26 287.421C1693.83 279.753 1698.18 272.94 1704.49 268.302C1710.79 263.664 1718.59 261.531 1726.38 262.318C1734.16 263.104 1741.38 266.754 1746.63 272.559C1751.88 278.364 1754.78 285.911 1754.78 293.737C1754.78 301.563 1751.88 309.11 1746.63 314.915C1741.38 320.72 1734.16 324.369 1726.38 325.156C1718.59 325.943 1710.79 323.81 1704.49 319.172C1698.18 314.534 1693.83 307.72 1692.26 300.053H1147.84C1146.28 307.72 1141.92 314.534 1135.62 319.172C1129.31 323.81 1121.51 325.943 1113.73 325.156C1105.94 324.369 1098.72 320.72 1093.48 314.915C1088.23 309.11 1085.32 301.563 1085.32 293.737C1085.32 285.911 1088.23 278.364 1093.48 272.559C1098.72 266.754 1105.94 263.104 1113.73 262.318C1121.51 261.531 1129.31 263.664 1135.62 268.302C1141.92 272.94 1146.28 279.753 1147.84 287.421H1692.26ZM75.4211 -15.7368C76.9862 -23.4044 81.3427 -30.2178 87.6458 -34.856C93.949 -39.4941 101.75 -41.6266 109.536 -40.8401C117.322 -40.0535 124.539 -36.4039 129.787 -30.5989C135.035 -24.7938 137.941 -17.2468 137.941 -9.42102C137.941 -1.59528 135.035 5.95172 129.787 11.7568C124.539 17.5619 117.322 21.2114 109.536 21.998C101.75 22.7845 93.949 20.652 87.6458 16.0139C81.3427 11.3757 76.9862 4.56238 75.4211 -3.10522H-1V-15.7368H75.4211ZM1248.89 199C1247.33 206.668 1242.97 213.481 1236.67 218.119C1230.37 222.757 1222.57 224.89 1214.78 224.103C1206.99 223.317 1199.78 219.667 1194.53 213.862C1189.28 208.057 1186.37 200.51 1186.37 192.684C1186.37 184.858 1189.28 177.311 1194.53 171.506C1199.78 165.701 1206.99 162.052 1214.78 161.265C1222.57 160.479 1230.37 162.611 1236.67 167.249C1242.97 171.887 1247.33 178.701 1248.89 186.368H1793.32C1794.88 178.701 1799.24 171.887 1805.54 167.249C1811.84 162.611 1819.64 160.479 1827.43 161.265C1835.22 162.052 1842.43 165.701 1847.68 171.506C1852.93 177.311 1855.84 184.858 1855.84 192.684C1855.84 200.51 1852.93 208.057 1847.68 213.862C1842.43 219.667 1835.22 223.317 1827.43 224.103C1819.64 224.89 1811.84 222.757 1805.54 218.119C1799.24 213.481 1794.88 206.668 1793.32 199H1248.89ZM1628.47 -444.579C1636.14 -443.014 1642.95 -438.657 1647.59 -432.354C1652.23 -426.051 1654.36 -418.25 1653.58 -410.464C1652.79 -402.678 1649.14 -395.461 1643.34 -390.213C1637.53 -384.965 1629.98 -382.059 1622.16 -382.059C1614.33 -382.059 1606.79 -384.965 1600.98 -390.213C1595.18 -395.461 1591.53 -402.678 1590.74 -410.464C1589.95 -418.25 1592.08 -426.051 1596.72 -432.354C1601.36 -438.657 1608.17 -443.014 1615.84 -444.579V-521H1628.47V-444.579ZM1224.26 869.105C1231.93 870.671 1238.74 875.027 1243.38 881.33C1248.02 887.633 1250.15 895.434 1249.37 903.22C1248.58 911.006 1244.93 918.223 1239.13 923.471C1233.32 928.719 1225.77 931.625 1217.95 931.625C1210.12 931.625 1202.57 928.719 1196.77 923.471C1190.96 918.223 1187.31 911.006 1186.53 903.22C1185.74 895.434 1187.87 887.633 1192.51 881.33C1197.15 875.027 1203.96 870.671 1211.63 869.105V526.789C1203.96 525.224 1197.15 520.868 1192.51 514.565C1187.87 508.262 1185.74 500.461 1186.53 492.675C1187.31 484.888 1190.96 477.672 1196.77 472.424C1202.57 467.175 1210.12 464.27 1217.95 464.27C1225.77 464.27 1233.32 467.175 1239.13 472.424C1244.93 477.672 1248.58 484.888 1249.37 492.675C1250.15 500.461 1248.02 508.262 1243.38 514.565C1238.74 520.868 1231.93 525.224 1224.26 526.789V869.105ZM1527.42 -382.684V-15.7368H1919V-3.10522H1514.79V-382.684C1507.12 -384.249 1500.31 -388.606 1495.67 -394.909C1491.03 -401.212 1488.9 -409.013 1489.69 -416.799C1490.47 -424.585 1494.12 -431.802 1499.93 -437.05C1505.73 -442.298 1513.28 -445.204 1521.11 -445.204C1528.93 -445.204 1536.48 -442.298 1542.28 -437.05C1548.09 -431.802 1551.74 -424.585 1552.52 -416.799C1553.31 -409.013 1551.18 -401.212 1546.54 -394.909C1541.9 -388.606 1535.09 -384.249 1527.42 -382.684ZM1628.47 -281.632V-116.789H1919V-104.158H1615.84V-281.632C1608.17 -283.197 1601.36 -287.553 1596.72 -293.856C1592.08 -300.16 1589.95 -307.96 1590.74 -315.746C1591.53 -323.533 1595.18 -330.749 1600.98 -335.997C1606.79 -341.246 1614.33 -344.151 1622.16 -344.151C1629.98 -344.151 1637.53 -341.246 1643.34 -335.997C1649.14 -330.749 1652.79 -323.533 1653.58 -315.746C1654.36 -307.96 1652.23 -300.16 1647.59 -293.856C1642.95 -287.553 1636.14 -283.197 1628.47 -281.632ZM820.053 324.684V792.684H921.105V869.105C928.773 870.671 935.586 875.027 940.224 881.33C944.863 887.633 946.995 895.434 946.209 903.22C945.422 911.006 941.772 918.223 935.967 923.471C930.162 928.719 922.615 931.625 914.789 931.625C906.964 931.625 899.417 928.719 893.612 923.471C887.807 918.223 884.157 911.006 883.37 903.22C882.584 895.434 884.716 887.633 889.355 881.33C893.993 875.027 900.806 870.671 908.474 869.105V805.316H807.421V324.684C799.753 323.119 792.94 318.763 788.302 312.459C783.664 306.156 781.531 298.355 782.318 290.569C783.104 282.783 786.754 275.566 792.559 270.318C798.364 265.07 805.911 262.164 813.737 262.164C821.563 262.164 829.11 265.07 834.915 270.318C840.72 275.566 844.369 282.783 845.156 290.569C845.943 298.355 843.81 306.156 839.172 312.459C834.534 318.763 827.72 323.119 820.053 324.684ZM782.789 186.368C784.355 178.701 788.711 171.887 795.014 167.249C801.317 162.611 809.118 160.479 816.904 161.265C824.691 162.052 831.907 165.701 837.155 171.506C842.404 177.311 845.309 184.858 845.309 192.684C845.309 200.51 842.404 208.057 837.155 213.862C831.907 219.667 824.691 223.317 816.904 224.103C809.118 224.89 801.317 222.757 795.014 218.119C788.711 213.481 784.355 206.668 782.789 199H719V502.158H541.526C539.961 509.826 535.605 516.639 529.302 521.277C522.998 525.915 515.198 528.048 507.411 527.261C499.625 526.475 492.409 522.825 487.16 517.02C481.912 511.215 479.006 503.668 479.006 495.842C479.006 488.016 481.912 480.469 487.16 474.664C492.409 468.859 499.625 465.21 507.411 464.423C515.198 463.637 522.998 465.769 529.302 470.407C535.605 475.045 539.961 481.859 541.526 489.526H706.368V186.368H782.789ZM743.632 1007.42C742.066 1015.09 737.71 1021.9 731.407 1026.54C725.104 1031.18 717.303 1033.31 709.517 1032.52C701.731 1031.74 694.514 1028.09 689.266 1022.28C684.017 1016.48 681.112 1008.93 681.112 1001.11C681.112 993.28 684.017 985.733 689.266 979.927C694.514 974.122 701.731 970.473 709.517 969.686C717.303 968.9 725.104 971.032 731.407 975.67C737.71 980.309 742.066 987.122 743.632 994.79H1110.58V526.789C1102.91 525.224 1096.1 520.868 1091.46 514.565C1086.82 508.262 1084.69 500.461 1085.48 492.675C1086.26 484.888 1089.91 477.672 1095.72 472.424C1101.52 467.175 1109.07 464.27 1116.89 464.27C1124.72 464.27 1132.27 467.175 1138.07 472.424C1143.88 477.672 1147.53 484.888 1148.31 492.675C1149.1 500.461 1146.97 508.262 1142.33 514.565C1137.69 520.868 1130.88 525.224 1123.21 526.789V1007.42H743.632ZM642.579 603.211C641.014 610.878 636.657 617.692 630.354 622.33C624.051 626.968 616.25 629.1 608.464 628.314C600.678 627.527 593.461 623.878 588.213 618.073C582.965 612.267 580.059 604.721 580.059 596.895C580.059 589.069 582.965 581.522 588.213 575.717C593.461 569.912 600.678 566.262 608.464 565.476C616.25 564.689 624.051 566.822 630.354 571.46C636.657 576.098 641.014 582.911 642.579 590.579H719V893.737H782.789C784.355 886.069 788.711 879.256 795.014 874.618C801.317 869.98 809.118 867.847 816.904 868.634C824.691 869.42 831.907 873.07 837.155 878.875C842.404 884.68 845.309 892.227 845.309 900.053C845.309 907.878 842.404 915.425 837.155 921.23C831.907 927.036 824.691 930.685 816.904 931.472C809.118 932.258 801.317 930.126 795.014 925.488C788.711 920.849 784.355 914.036 782.789 906.369H706.368V603.211H642.579ZM415.842 1273.32C423.51 1274.88 430.323 1279.24 434.961 1285.54C439.599 1291.84 441.732 1299.64 440.945 1307.43C440.159 1315.22 436.509 1322.43 430.704 1327.68C424.899 1332.93 417.352 1335.84 409.526 1335.84C401.701 1335.84 394.154 1332.93 388.349 1327.68C382.543 1322.43 378.894 1315.22 378.107 1307.43C377.321 1299.64 379.453 1291.84 384.091 1285.54C388.73 1279.24 395.543 1274.88 403.211 1273.32V1209.53H314.789V1399H302.158V1196.89H415.842V1273.32ZM1490.16 590.579C1491.72 582.911 1496.08 576.098 1502.38 571.46C1508.69 566.822 1516.49 564.689 1524.27 565.476C1532.06 566.262 1539.28 569.912 1544.52 575.717C1549.77 581.522 1552.68 589.069 1552.68 596.895C1552.68 604.721 1549.77 612.267 1544.52 618.073C1539.28 623.878 1532.06 627.527 1524.27 628.314C1516.49 629.1 1508.69 626.968 1502.38 622.33C1496.08 617.692 1491.72 610.878 1490.16 603.211H1426.37V1196.89H1729.53V1399H1716.89V1209.53H1413.74V590.579H1490.16ZM1653.11 401.105C1651.54 408.773 1647.18 415.586 1640.88 420.224C1634.58 424.863 1626.78 426.995 1618.99 426.209C1611.2 425.422 1603.99 421.772 1598.74 415.967C1593.49 410.162 1590.59 402.615 1590.59 394.789C1590.59 386.964 1593.49 379.417 1598.74 373.612C1603.99 367.807 1611.2 364.157 1618.99 363.37C1626.78 362.584 1634.58 364.716 1640.88 369.355C1647.18 373.993 1651.54 380.806 1653.11 388.474H1729.53V667C1737.19 668.565 1744.01 672.922 1748.65 679.225C1753.28 685.528 1755.42 693.329 1754.63 701.115C1753.84 708.901 1750.19 716.118 1744.39 721.366C1738.58 726.614 1731.04 729.52 1723.21 729.52C1715.38 729.52 1707.84 726.614 1702.03 721.366C1696.23 716.118 1692.58 708.901 1691.79 701.115C1691.01 693.329 1693.14 685.528 1697.78 679.225C1702.41 672.922 1709.23 668.565 1716.89 667V401.105H1653.11ZM1248.89 1007.42C1247.33 1015.09 1242.97 1021.9 1236.67 1026.54C1230.37 1031.18 1222.57 1033.31 1214.78 1032.52C1206.99 1031.74 1199.78 1028.09 1194.53 1022.28C1189.28 1016.48 1186.37 1008.93 1186.37 1001.11C1186.37 993.28 1189.28 985.733 1194.53 979.927C1199.78 974.122 1206.99 970.473 1214.78 969.686C1222.57 968.9 1230.37 971.032 1236.67 975.67C1242.97 980.309 1247.33 987.122 1248.89 994.79H1312.68V489.526H1413.74V401.105H1147.84C1146.28 408.773 1141.92 415.586 1135.62 420.224C1129.31 424.863 1121.51 426.995 1113.73 426.209C1105.94 425.422 1098.72 421.772 1093.48 415.967C1088.23 410.162 1085.32 402.615 1085.32 394.789C1085.32 386.964 1088.23 379.417 1093.48 373.612C1098.72 367.807 1105.94 364.157 1113.73 363.37C1121.51 362.584 1129.31 364.716 1135.62 369.355C1141.92 373.993 1146.28 380.806 1147.84 388.474H1426.37V502.158H1325.32V1007.42H1248.89ZM1793.32 -318.895C1794.88 -326.562 1799.24 -333.376 1805.54 -338.014C1811.84 -342.652 1819.64 -344.785 1827.43 -343.998C1835.22 -343.211 1842.43 -339.562 1847.68 -333.757C1852.93 -327.952 1855.84 -320.405 1855.84 -312.579C1855.84 -304.753 1852.93 -297.206 1847.68 -291.401C1842.43 -285.596 1835.22 -281.946 1827.43 -281.16C1819.64 -280.373 1811.84 -282.506 1805.54 -287.144C1799.24 -291.782 1794.88 -298.596 1793.32 -306.263H1716.89V-521H1729.53V-318.895H1793.32ZM617.947 122.579V401.105H339.421C337.856 408.773 333.499 415.586 327.196 420.224C320.893 424.863 313.092 426.995 305.306 426.209C297.52 425.422 290.303 421.772 285.055 415.967C279.807 410.162 276.901 402.615 276.901 394.789C276.901 386.964 279.807 379.417 285.055 373.612C290.303 367.807 297.52 364.157 305.306 363.37C313.092 362.584 320.893 364.716 327.196 369.355C333.499 373.993 337.856 380.806 339.421 388.474H605.316V122.579C597.648 121.014 590.835 116.657 586.197 110.354C581.559 104.051 579.426 96.2502 580.213 88.4641C580.999 80.6779 584.649 73.4612 590.454 68.213C596.259 62.9648 603.806 60.0591 611.632 60.0591C619.457 60.0591 627.004 62.9648 632.809 68.213C638.615 73.4612 642.264 80.6779 643.051 88.4641C643.837 96.2502 641.705 104.051 637.067 110.354C632.428 116.657 625.615 121.014 617.947 122.579ZM339.421 -306.263C337.856 -298.596 333.499 -291.782 327.196 -287.144C320.893 -282.506 313.092 -280.373 305.306 -281.16C297.52 -281.946 290.303 -285.596 285.055 -291.401C279.807 -297.206 276.901 -304.753 276.901 -312.579C276.901 -320.405 279.807 -327.952 285.055 -333.757C290.303 -339.562 297.52 -343.211 305.306 -343.998C313.092 -344.785 320.893 -342.652 327.196 -338.014C333.499 -333.376 337.856 -326.562 339.421 -318.895H504.263V-521H516.895V-306.263H339.421ZM719 -281.632V-104.158H516.895V300.053H440.474C438.909 307.72 434.552 314.534 428.249 319.172C421.946 323.81 414.145 325.943 406.359 325.156C398.573 324.369 391.356 320.72 386.108 314.915C380.86 309.11 377.954 301.563 377.954 293.737C377.954 285.911 380.86 278.364 386.108 272.559C391.356 266.754 398.573 263.104 406.359 262.318C414.145 261.531 421.946 263.664 428.249 268.302C434.552 272.94 438.909 279.753 440.474 287.421H504.263V-116.789H706.368V-281.632C698.701 -283.197 691.887 -287.553 687.249 -293.856C682.611 -300.16 680.479 -307.96 681.265 -315.746C682.052 -323.533 685.701 -330.749 691.506 -335.997C697.311 -341.246 704.858 -344.151 712.684 -344.151C720.51 -344.151 728.057 -341.246 733.862 -335.997C739.667 -330.749 743.317 -323.533 744.103 -315.746C744.89 -307.96 742.757 -300.16 738.119 -293.856C733.481 -287.553 726.668 -283.197 719 -281.632ZM642.579 -3.10522C641.014 4.56238 636.657 11.3757 630.354 16.0139C624.051 20.652 616.25 22.7845 608.464 21.998C600.678 21.2114 593.461 17.5619 588.213 11.7568C582.965 5.95172 580.059 -1.59528 580.059 -9.42102C580.059 -17.2468 582.965 -24.7938 588.213 -30.5989C593.461 -36.4039 600.678 -40.0535 608.464 -40.8401C616.25 -41.6266 624.051 -39.4941 630.354 -34.856C636.657 -30.2178 641.014 -23.4044 642.579 -15.7368H807.421V-281.632C799.753 -283.197 792.94 -287.553 788.302 -293.856C783.664 -300.16 781.531 -307.96 782.318 -315.746C783.104 -323.533 786.754 -330.749 792.559 -335.997C798.364 -341.246 805.911 -344.151 813.737 -344.151C821.563 -344.151 829.11 -341.246 834.915 -335.997C840.72 -330.749 844.369 -323.533 845.156 -315.746C845.943 -307.96 843.81 -300.16 839.172 -293.856C834.534 -287.553 827.72 -283.197 820.053 -281.632V-3.10522H642.579ZM743.632 -407.316C742.066 -399.648 737.71 -392.835 731.407 -388.197C725.104 -383.559 717.303 -381.426 709.517 -382.213C701.731 -382.999 694.514 -386.649 689.266 -392.454C684.017 -398.259 681.112 -405.806 681.112 -413.632C681.112 -421.457 684.017 -429.004 689.266 -434.809C694.514 -440.614 701.731 -444.264 709.517 -445.051C717.303 -445.837 725.104 -443.705 731.407 -439.067C737.71 -434.428 742.066 -427.615 743.632 -419.947H921.105V-141.421C928.773 -139.856 935.586 -135.499 940.224 -129.196C944.863 -122.893 946.995 -115.092 946.209 -107.306C945.422 -99.52 941.772 -92.3033 935.967 -87.0551C930.162 -81.8069 922.615 -78.9012 914.789 -78.9012C906.964 -78.9012 899.417 -81.8069 893.612 -87.0551C887.807 -92.3033 884.157 -99.52 883.37 -107.306C882.584 -115.092 884.716 -122.893 889.355 -129.196C893.993 -135.499 900.806 -139.856 908.474 -141.421V-407.316H743.632ZM1389.11 1297.95C1390.67 1290.28 1395.03 1283.47 1401.33 1278.83C1407.63 1274.19 1415.43 1272.06 1423.22 1272.84C1431.01 1273.63 1438.22 1277.28 1443.47 1283.09C1448.72 1288.89 1451.63 1296.44 1451.63 1304.26C1451.63 1312.09 1448.72 1319.64 1443.47 1325.44C1438.22 1331.25 1431.01 1334.9 1423.22 1335.68C1415.43 1336.47 1407.63 1334.34 1401.33 1329.7C1395.03 1325.06 1390.67 1318.25 1389.11 1310.58H617.947V1399H605.316V1297.95H1389.11ZM1527.42 425.737V489.526H1628.47V704.263H1527.42V1095.84H1830.58V1399H1817.95V1108.47H1514.79V691.632H1615.84V502.158H1514.79V425.737C1507.12 424.172 1500.31 419.815 1495.67 413.512C1491.03 407.209 1488.9 399.408 1489.69 391.622C1490.47 383.836 1494.12 376.619 1499.93 371.371C1505.73 366.123 1513.28 363.217 1521.11 363.217C1528.93 363.217 1536.48 366.123 1542.28 371.371C1548.09 376.619 1551.74 383.836 1552.52 391.622C1553.31 399.408 1551.18 407.209 1546.54 413.512C1541.9 419.815 1535.09 424.172 1527.42 425.737ZM339.421 -407.316C337.856 -399.648 333.499 -392.835 327.196 -388.197C320.893 -383.559 313.092 -381.426 305.306 -382.213C297.52 -382.999 290.303 -386.649 285.055 -392.454C279.807 -398.259 276.901 -405.806 276.901 -413.632C276.901 -421.457 279.807 -429.004 285.055 -434.809C290.303 -440.614 297.52 -444.264 305.306 -445.051C313.092 -445.837 320.893 -443.705 327.196 -439.067C333.499 -434.428 337.856 -427.615 339.421 -419.947H403.211V-508.368H302.158V-521H415.842V-407.316H339.421ZM1046.79 -205.211C1045.22 -197.543 1040.87 -190.73 1034.56 -186.091C1028.26 -181.453 1020.46 -179.321 1012.67 -180.107C1004.89 -180.894 997.672 -184.543 992.424 -190.348C987.175 -196.154 984.27 -203.701 984.27 -211.526C984.27 -219.352 987.175 -226.899 992.424 -232.704C997.672 -238.509 1004.89 -242.159 1012.67 -242.945C1020.46 -243.732 1028.26 -241.599 1034.56 -236.961C1040.87 -232.323 1045.22 -225.51 1046.79 -217.842H1211.63V-521H1527.42V-508.368H1224.26V-205.211H1046.79ZM743.632 -508.368C742.802 -504.304 741.18 -500.443 738.859 -497.006C736.537 -493.569 733.562 -490.622 730.101 -488.335C726.641 -486.048 722.764 -484.465 718.692 -483.676C714.62 -482.887 710.432 -482.907 706.368 -483.737C702.304 -484.566 698.443 -486.188 695.006 -488.51C691.569 -490.831 688.622 -493.807 686.335 -497.267C681.716 -504.255 680.062 -512.792 681.737 -521H694.811C693.805 -518.143 693.5 -515.087 693.92 -512.087C694.339 -509.088 695.472 -506.232 697.222 -503.761C698.973 -501.289 701.291 -499.274 703.981 -497.882C706.671 -496.491 709.656 -495.765 712.684 -495.765C715.713 -495.765 718.697 -496.491 721.388 -497.882C724.078 -499.274 726.396 -501.289 728.146 -503.761C729.897 -506.232 731.029 -509.088 731.449 -512.087C731.868 -515.087 731.563 -518.143 730.558 -521H1123.21V-306.263H1009.53V-382.684C1001.86 -384.249 995.045 -388.606 990.407 -394.909C985.769 -401.212 983.637 -409.013 984.423 -416.799C985.21 -424.585 988.859 -431.802 994.664 -437.05C1000.47 -442.298 1008.02 -445.204 1015.84 -445.204C1023.67 -445.204 1031.21 -442.298 1037.02 -437.05C1042.82 -431.802 1046.47 -424.585 1047.26 -416.799C1048.05 -409.013 1045.92 -401.212 1041.28 -394.909C1036.64 -388.606 1029.83 -384.249 1022.16 -382.684V-318.895H1110.58V-508.368H743.632ZM743.632 97.9474C742.066 105.615 737.71 112.428 731.407 117.067C725.104 121.705 717.303 123.837 709.517 123.051C701.731 122.264 694.514 118.615 689.266 112.809C684.017 107.004 681.112 99.4573 681.112 91.6316C681.112 83.8058 684.017 76.2589 689.266 70.4538C694.514 64.6487 701.731 60.9991 709.517 60.2126C717.303 59.426 725.104 61.5585 731.407 66.1967C737.71 70.8348 742.066 77.6482 743.632 85.3158H864.263L1066.37 -116.789H1312.68V-382.684C1305.02 -384.249 1298.2 -388.606 1293.57 -394.909C1288.93 -401.212 1286.79 -409.013 1287.58 -416.799C1288.37 -424.585 1292.02 -431.802 1297.82 -437.05C1303.63 -442.298 1311.17 -445.204 1319 -445.204C1326.83 -445.204 1334.37 -442.298 1340.18 -437.05C1345.98 -431.802 1349.63 -424.585 1350.42 -416.799C1351.21 -409.013 1349.07 -401.212 1344.43 -394.909C1339.8 -388.606 1332.98 -384.249 1325.32 -382.684V-104.158H1071.61L869.505 97.9474H743.632ZM921.105 667C928.773 668.565 935.586 672.922 940.224 679.225C944.863 685.528 946.995 693.329 946.209 701.115C945.422 708.901 941.772 716.118 935.967 721.366C930.162 726.614 922.615 729.52 914.789 729.52C906.964 729.52 899.417 726.614 893.612 721.366C887.807 716.118 884.157 708.901 883.37 701.115C882.584 693.329 884.716 685.528 889.355 679.225C893.993 672.922 900.806 668.565 908.474 667V183.779L1107.99 -15.7368H1413.74V-382.684C1406.07 -384.249 1399.26 -388.606 1394.62 -394.909C1389.98 -401.212 1387.85 -409.013 1388.63 -416.799C1389.42 -424.585 1393.07 -431.802 1398.87 -437.05C1404.68 -442.298 1412.23 -445.204 1420.05 -445.204C1427.88 -445.204 1435.43 -442.298 1441.23 -437.05C1447.04 -431.802 1450.69 -424.585 1451.47 -416.799C1452.26 -409.013 1450.13 -401.212 1445.49 -394.909C1440.85 -388.606 1434.04 -384.249 1426.37 -382.684V-3.10522H1113.17L921.105 188.958V667ZM1022.16 869.105C1029.83 870.671 1036.64 875.027 1041.28 881.33C1045.92 887.633 1048.05 895.434 1047.26 903.22C1046.47 911.006 1042.82 918.223 1037.02 923.471C1031.21 928.719 1023.67 931.625 1015.84 931.625C1008.02 931.625 1000.47 928.719 994.664 923.471C988.859 918.223 985.21 911.006 984.423 903.22C983.637 895.434 985.769 887.633 990.407 881.33C995.045 875.027 1001.86 870.671 1009.53 869.105V240.621L1164.83 85.3158H1894.37C1895.61 79.247 1898.6 73.6761 1902.98 69.2966C1907.36 64.9169 1912.93 61.9219 1919 60.6842V73.7579C1915.3 75.0598 1912.09 77.4786 1909.83 80.6802C1907.56 83.8817 1906.34 87.7083 1906.34 91.6316C1906.34 95.5549 1907.56 99.3815 1909.83 102.583C1912.09 105.785 1915.3 108.203 1919 109.505V122.579C1912.93 121.341 1907.36 118.346 1902.98 113.967C1898.6 109.587 1895.61 104.016 1894.37 97.9474H1170.01L1022.16 245.8V869.105ZM112.684 464.895C120.352 466.46 127.165 470.816 131.803 477.12C136.441 483.423 138.574 491.224 137.787 499.01C137.001 506.796 133.351 514.012 127.546 519.261C121.741 524.509 114.194 527.415 106.368 527.415C98.5427 527.415 90.9957 524.509 85.1906 519.261C79.3855 514.012 75.7359 506.796 74.9494 499.01C74.1628 491.224 76.2953 483.423 80.9335 477.12C85.5716 470.816 92.385 466.46 100.053 464.895V442.726L403.211 139.568V-217.842H605.316V-521H617.947V-205.211H415.842V144.747L112.684 447.905V464.895ZM314.789 -180.579V94.2211L11.6316 397.379V792.684H176.474C178.039 785.017 182.395 778.203 188.698 773.565C195.002 768.927 202.802 766.794 210.589 767.581C218.375 768.368 225.591 772.017 230.84 777.822C236.088 783.627 238.994 791.174 238.994 799C238.994 806.826 236.088 814.373 230.84 820.178C225.591 825.983 218.375 829.633 210.589 830.419C202.802 831.206 195.002 829.073 188.698 824.435C182.395 819.797 178.039 812.984 176.474 805.316H-1V392.2L302.158 89.0421V-180.579C294.49 -182.144 287.677 -186.501 283.039 -192.804C278.401 -199.107 276.268 -206.908 277.055 -214.694C277.841 -222.48 281.491 -229.697 287.296 -234.945C293.101 -240.193 300.648 -243.099 308.474 -243.099C316.299 -243.099 323.846 -240.193 329.652 -234.945C335.457 -229.697 339.106 -222.48 339.893 -214.694C340.679 -206.908 338.547 -199.107 333.909 -192.804C329.27 -186.501 322.457 -182.144 314.789 -180.579ZM213.737 -79.5263V43.6948L-1 258.432V240.621L201.105 38.5158V-79.5263C193.438 -81.0914 186.624 -85.4479 181.986 -91.7511C177.348 -98.0543 175.215 -105.855 176.002 -113.641C176.789 -121.427 180.438 -128.644 186.243 -133.892C192.048 -139.14 199.595 -142.046 207.421 -142.046C215.247 -142.046 222.794 -139.14 228.599 -133.892C234.404 -128.644 238.054 -121.427 238.84 -113.641C239.627 -105.855 237.494 -98.0543 232.856 -91.7511C228.218 -85.4479 221.404 -81.0914 213.737 -79.5263ZM75.4211 -318.895C76.9862 -326.562 81.3427 -333.376 87.6458 -338.014C93.949 -342.652 101.75 -344.785 109.536 -343.998C117.322 -343.211 124.539 -339.562 129.787 -333.757C135.035 -327.952 137.941 -320.405 137.941 -312.579C137.941 -304.753 135.035 -297.206 129.787 -291.401C124.539 -285.596 117.322 -281.946 109.536 -281.16C101.75 -280.373 93.949 -282.506 87.6458 -287.144C81.3427 -291.782 76.9862 -298.596 75.4211 -306.263H58.4316L-1 -246.832V-264.579L53.2526 -318.895H75.4211ZM1754.16 -205.211C1752.59 -197.543 1748.24 -190.73 1741.93 -186.091C1735.63 -181.453 1727.83 -179.321 1720.04 -180.107C1712.26 -180.894 1705.04 -184.543 1699.79 -190.348C1694.54 -196.154 1691.64 -203.701 1691.64 -211.526C1691.64 -219.352 1694.54 -226.899 1699.79 -232.704C1705.04 -238.509 1712.26 -242.159 1720.04 -242.945C1727.83 -243.732 1735.63 -241.599 1741.93 -236.961C1748.24 -232.323 1752.59 -225.51 1754.16 -217.842H1872.2L1919 -264.642V-246.832L1877.38 -205.211H1754.16ZM1653.11 805.316C1651.54 812.984 1647.18 819.797 1640.88 824.435C1634.58 829.073 1626.78 831.206 1618.99 830.419C1611.2 829.633 1603.99 825.983 1598.74 820.178C1593.49 814.373 1590.59 806.826 1590.59 799C1590.59 791.174 1593.49 783.627 1598.74 777.822C1603.99 772.017 1611.2 768.368 1618.99 767.581C1626.78 766.794 1634.58 768.927 1640.88 773.565C1647.18 778.203 1651.54 785.017 1653.11 792.684H1817.95V341.674L1919 240.621V258.432L1830.58 346.853V805.316H1653.11ZM339.421 1007.42C337.856 1015.09 333.499 1021.9 327.196 1026.54C320.893 1031.18 313.092 1033.31 305.306 1032.52C297.52 1031.74 290.303 1028.09 285.055 1022.28C279.807 1016.48 276.901 1008.93 276.901 1001.11C276.901 993.28 279.807 985.733 285.055 979.927C290.303 974.122 297.52 970.473 305.306 969.686C313.092 968.9 320.893 971.032 327.196 975.67C333.499 980.309 337.856 987.122 339.421 994.79H403.211V852.116L255.358 704.263H137.316C135.751 711.931 131.394 718.744 125.091 723.382C118.788 728.021 110.987 730.153 103.201 729.366C95.4148 728.58 88.1981 724.93 82.9499 719.125C77.7017 713.32 74.7959 705.773 74.7959 697.947C74.7959 690.122 77.7017 682.575 82.9499 676.77C88.1981 670.965 95.4148 667.315 103.201 666.528C110.987 665.742 118.788 667.874 125.091 672.513C131.394 677.151 135.751 683.964 137.316 691.632H260.537L415.842 846.937V1007.42H339.421ZM1288.05 1095.84C1289.62 1088.17 1293.97 1081.36 1300.28 1076.72C1306.58 1072.08 1314.38 1069.95 1322.17 1070.74C1329.95 1071.53 1337.17 1075.18 1342.42 1080.98C1347.67 1086.79 1350.57 1094.33 1350.57 1102.16C1350.57 1109.98 1347.67 1117.53 1342.42 1123.34C1337.17 1129.14 1329.95 1132.79 1322.17 1133.58C1314.38 1134.36 1306.58 1132.23 1300.28 1127.59C1293.97 1122.95 1289.62 1116.14 1288.05 1108.47H605.316V751L356.474 502.158H238.368C236.803 509.826 232.447 516.639 226.144 521.277C219.84 525.915 212.04 528.048 204.254 527.261C196.467 526.475 189.251 522.825 184.003 517.02C178.754 511.215 175.849 503.668 175.849 495.842C175.849 488.016 178.754 480.469 184.003 474.664C189.251 468.859 196.467 465.21 204.254 464.423C212.04 463.637 219.84 465.769 226.144 470.407C232.447 475.045 236.803 481.859 238.368 489.526H361.526L617.947 745.948V1095.84H1288.05ZM339.421 1108.47C337.856 1116.14 333.499 1122.95 327.196 1127.59C320.893 1132.23 313.092 1134.36 305.306 1133.58C297.52 1132.79 290.303 1129.14 285.055 1123.34C279.807 1117.53 276.901 1109.98 276.901 1102.16C276.901 1094.33 279.807 1086.79 285.055 1080.98C290.303 1075.18 297.52 1071.53 305.306 1070.74C313.092 1069.95 320.893 1072.08 327.196 1076.72C333.499 1081.36 337.856 1088.17 339.421 1095.84H504.263V801.59L305.884 603.211H137.316C135.751 610.878 131.394 617.692 125.091 622.33C118.788 626.968 110.987 629.1 103.201 628.314C95.4148 627.527 88.1981 623.878 82.9499 618.073C77.7017 612.267 74.7959 604.721 74.7959 596.895C74.7959 589.069 77.7017 581.522 82.9499 575.717C88.1981 569.912 95.4148 566.262 103.201 565.476C110.987 564.689 118.788 566.822 125.091 571.46C131.394 576.098 135.751 582.911 137.316 590.579H311.063L516.895 796.411V1108.47H339.421ZM213.737 -269.632V-259.463L58.4316 -104.158H-1V-116.789H53.2526L201.105 -264.642V-521H213.737V-269.632ZM11.6316 1374.37C17.7004 1375.61 23.2712 1378.6 27.6508 1382.98C32.0305 1387.36 35.0255 1392.93 36.2632 1399H23.1895C22.3611 1396.65 21.0781 1394.49 19.4139 1392.64C17.7496 1390.79 15.7366 1389.28 13.4901 1388.21C11.2436 1387.13 8.80757 1386.51 6.32126 1386.38C3.83495 1386.25 1.34712 1386.61 -1 1387.44L-1 1095.84H112.684V1399H100.053V1108.47H11.6316V1374.37ZM213.737 1001.11V1399H201.105V1007.42H-1V994.79H213.737V1001.11ZM106.368 -407.316H-1V-419.947H100.053V-521H112.684V-407.316H106.368ZM1830.58 -419.947H1919V-407.316H1817.95V-521H1830.58V-419.947ZM1628.47 1304.26V1399H1615.84V1310.58H1527.42V1399H1514.79V1297.95H1628.47V1304.26ZM-1 60.6842C3.586 59.7713 8.31715 59.8842 12.8544 61.0145C17.3917 62.145 21.6228 64.265 25.2445 67.2227C28.8662 70.1804 31.7888 73.9026 33.803 78.1225C35.8171 82.3425 36.8729 86.9557 36.8947 91.6316C36.8957 96.3149 35.855 100.94 33.848 105.171C31.841 109.403 28.9179 113.135 25.2906 116.097C21.6632 119.059 17.4224 121.178 12.8753 122.299C8.32819 123.42 3.58865 123.516 -1 122.579L-1 109.505C1.85706 110.51 4.91343 110.816 7.9129 110.396C10.9124 109.977 13.7675 108.844 16.2391 107.093C18.7106 105.343 20.7265 103.025 22.1177 100.335C23.5089 97.6448 24.235 94.6603 24.235 91.6316C24.235 88.6029 23.5089 85.6183 22.1177 82.9281C20.7265 80.2379 18.7106 77.9203 16.2391 76.1698C13.7675 74.4193 10.9124 73.2866 7.9129 72.867C4.91343 72.4473 1.85706 72.7529 -1 73.7579L-1 60.6842ZM504.263 1196.89H516.895V1399H504.263V1196.89ZM743.632 1399H730.558C729.256 1395.3 726.837 1392.09 723.636 1389.83C720.434 1387.56 716.608 1386.34 712.684 1386.34C708.761 1386.34 704.934 1387.56 701.733 1389.83C698.531 1392.09 696.112 1395.3 694.811 1399H681.737C683.186 1391.86 687.059 1385.44 692.699 1380.83C698.339 1376.22 705.4 1373.71 712.684 1373.71C719.969 1373.71 727.029 1376.22 732.669 1380.83C738.309 1385.44 742.182 1391.86 743.632 1399ZM36.2632 -521C37.2758 -515.889 37.0135 -510.608 35.4992 -505.623C33.985 -500.638 31.2656 -496.102 27.5816 -492.418C23.8975 -488.734 19.3624 -486.015 14.3773 -484.501C9.39213 -482.987 4.11066 -482.724 -1 -483.737L-1 -496.811C2.37401 -495.614 6.01785 -495.398 9.50949 -496.188C13.0011 -496.977 16.1977 -498.74 18.729 -501.271C21.2603 -503.802 23.0227 -506.999 23.8121 -510.491C24.6015 -513.982 24.3856 -517.626 23.1895 -521H36.2632ZM1894.37 -521H1907.44C1906.61 -518.653 1906.25 -516.165 1906.38 -513.679C1906.51 -511.192 1907.13 -508.756 1908.21 -506.51C1909.28 -504.263 1910.79 -502.25 1912.64 -500.586C1914.49 -498.922 1916.65 -497.639 1919 -496.811V-483.737C1914.94 -484.565 1911.07 -486.187 1907.64 -488.508C1904.2 -490.829 1901.25 -493.805 1898.96 -497.266C1896.68 -500.726 1895.09 -504.603 1894.31 -508.676C1893.52 -512.748 1893.54 -516.936 1894.37 -521V-521ZM1919 1374.37V1387.44C1916.33 1388.38 1913.91 1389.91 1911.91 1391.91C1909.91 1393.91 1908.38 1396.33 1907.44 1399H1894.37C1895.61 1392.93 1898.6 1387.36 1902.98 1382.98C1907.36 1378.6 1912.93 1375.61 1919 1374.37ZM611.632 110.579C614.12 110.579 616.584 110.089 618.882 109.137C621.181 108.185 623.27 106.789 625.029 105.029C626.789 103.27 628.185 101.181 629.137 98.8824C630.089 96.5836 630.579 94.1198 630.579 91.6316C630.579 89.1434 630.089 86.6796 629.137 84.3808C628.185 82.082 626.789 79.9932 625.029 78.2338C623.27 76.4744 621.181 75.0787 618.882 74.1265C616.584 73.1743 614.12 72.6842 611.632 72.6842C606.606 72.6842 601.787 74.6805 598.234 78.2338C594.68 81.7871 592.684 86.6064 592.684 91.6316C592.684 96.6567 594.68 101.476 598.234 105.029C601.787 108.583 606.606 110.579 611.632 110.579ZM611.632 9.52631C616.657 9.52631 621.476 7.53009 625.029 3.97681C628.583 0.423462 630.579 -4.39587 630.579 -9.42102C630.579 -14.4462 628.583 -19.2655 625.029 -22.8188C621.476 -26.3722 616.657 -28.3684 611.632 -28.3684C606.606 -28.3684 601.787 -26.3722 598.234 -22.8188C594.68 -19.2655 592.684 -14.4462 592.684 -9.42102C592.684 -4.39587 594.68 0.423462 598.234 3.97681C601.787 7.53009 606.606 9.52631 611.632 9.52631ZM712.684 110.579C715.172 110.579 717.636 110.089 719.935 109.137C722.234 108.185 724.323 106.789 726.082 105.029C727.841 103.27 729.237 101.181 730.189 98.8824C731.141 96.5836 731.632 94.1198 731.632 91.6316C731.632 89.1434 731.141 86.6796 730.189 84.3808C729.237 82.082 727.841 79.9932 726.082 78.2338C724.323 76.4744 722.234 75.0787 719.935 74.1265C717.636 73.1743 715.172 72.6842 712.684 72.6842C707.659 72.6842 702.84 74.6805 699.286 78.2338C695.733 81.7871 693.737 86.6064 693.737 91.6316C693.737 96.6567 695.733 101.476 699.286 105.029C702.84 108.583 707.659 110.579 712.684 110.579ZM813.737 211.632C818.762 211.632 823.581 209.635 827.135 206.082C830.688 202.529 832.684 197.709 832.684 192.684C832.684 187.659 830.688 182.84 827.135 179.286C823.581 175.733 818.762 173.737 813.737 173.737C808.712 173.737 803.892 175.733 800.339 179.286C796.786 182.84 794.789 187.659 794.789 192.684C794.789 197.709 796.786 202.529 800.339 206.082C803.892 209.635 808.712 211.632 813.737 211.632ZM813.737 312.684C818.762 312.684 823.581 310.688 827.135 307.135C830.688 303.581 832.684 298.762 832.684 293.737C832.684 288.712 830.688 283.892 827.135 280.339C823.581 276.786 818.762 274.789 813.737 274.789C808.712 274.789 803.892 276.786 800.339 280.339C796.786 283.892 794.789 288.712 794.789 293.737C794.789 298.762 796.786 303.581 800.339 307.135C803.892 310.688 808.712 312.684 813.737 312.684ZM510.579 514.79C515.604 514.79 520.423 512.793 523.977 509.24C527.53 505.687 529.526 500.867 529.526 495.842C529.526 490.817 527.53 485.998 523.977 482.444C520.423 478.891 515.604 476.895 510.579 476.895C505.554 476.895 500.734 478.891 497.181 482.444C493.628 485.998 491.632 490.817 491.632 495.842C491.632 500.867 493.628 505.687 497.181 509.24C500.734 512.793 505.554 514.79 510.579 514.79ZM611.632 615.842C616.657 615.842 621.476 613.846 625.029 610.293C628.583 606.739 630.579 601.92 630.579 596.895C630.579 591.87 628.583 587.05 625.029 583.497C621.476 579.944 616.657 577.947 611.632 577.947C606.606 577.947 601.787 579.944 598.234 583.497C594.68 587.05 592.684 591.87 592.684 596.895C592.684 601.92 594.68 606.739 598.234 610.293C601.787 613.846 606.606 615.842 611.632 615.842ZM813.737 919C818.762 919 823.581 917.004 827.135 913.451C830.688 909.897 832.684 905.078 832.684 900.053C832.684 895.028 830.688 890.208 827.135 886.655C823.581 883.102 818.762 881.105 813.737 881.105C808.712 881.105 803.892 883.102 800.339 886.655C796.786 890.208 794.789 895.028 794.789 900.053C794.789 905.078 796.786 909.897 800.339 913.451C803.892 917.004 808.712 919 813.737 919ZM712.684 1020.05C717.709 1020.05 722.529 1018.06 726.082 1014.5C729.635 1010.95 731.632 1006.13 731.632 1001.11C731.632 996.08 729.635 991.261 726.082 987.708C722.529 984.154 717.709 982.158 712.684 982.158C707.659 982.158 702.84 984.154 699.286 987.708C695.733 991.261 693.737 996.08 693.737 1001.11C693.737 1006.13 695.733 1010.95 699.286 1014.5C702.84 1018.06 707.659 1020.05 712.684 1020.05ZM914.789 919C919.815 919 924.634 917.004 928.187 913.451C931.741 909.897 933.737 905.078 933.737 900.053C933.737 895.028 931.741 890.208 928.187 886.655C924.634 883.102 919.815 881.105 914.789 881.105C909.764 881.105 904.945 883.102 901.392 886.655C897.838 890.208 895.842 895.028 895.842 900.053C895.842 905.078 897.838 909.897 901.392 913.451C904.945 917.004 909.764 919 914.789 919ZM914.789 716.895C919.815 716.895 924.634 714.899 928.187 711.345C931.741 707.792 933.737 702.973 933.737 697.947C933.737 692.922 931.741 688.103 928.187 684.55C924.634 680.996 919.815 679 914.789 679C909.764 679 904.945 680.996 901.392 684.55C897.838 688.103 895.842 692.922 895.842 697.947C895.842 702.973 897.838 707.792 901.392 711.345C904.945 714.899 909.764 716.895 914.789 716.895ZM1015.84 919C1020.87 919 1025.69 917.004 1029.24 913.451C1032.79 909.897 1034.79 905.078 1034.79 900.053C1034.79 895.028 1032.79 890.208 1029.24 886.655C1025.69 883.102 1020.87 881.105 1015.84 881.105C1010.82 881.105 1006 883.102 1002.44 886.655C998.891 890.208 996.895 895.028 996.895 900.053C996.895 905.078 998.891 909.897 1002.44 913.451C1006 917.004 1010.82 919 1015.84 919ZM1217.95 1020.05C1222.97 1020.05 1227.79 1018.06 1231.35 1014.5C1234.9 1010.95 1236.89 1006.13 1236.89 1001.11C1236.89 996.08 1234.9 991.261 1231.35 987.708C1227.79 984.154 1222.97 982.158 1217.95 982.158C1212.92 982.158 1208.1 984.154 1204.55 987.708C1201 991.261 1199 996.08 1199 1001.11C1199 1006.13 1201 1010.95 1204.55 1014.5C1208.1 1018.06 1212.92 1020.05 1217.95 1020.05ZM1217.95 919C1222.97 919 1227.79 917.004 1231.35 913.451C1234.9 909.897 1236.89 905.078 1236.89 900.053C1236.89 895.028 1234.9 890.208 1231.35 886.655C1227.79 883.102 1222.97 881.105 1217.95 881.105C1212.92 881.105 1208.1 883.102 1204.55 886.655C1201 890.208 1199 895.028 1199 900.053C1199 905.078 1201 909.897 1204.55 913.451C1208.1 917.004 1212.92 919 1217.95 919ZM1116.89 514.79C1121.92 514.79 1126.74 512.793 1130.29 509.24C1133.85 505.687 1135.84 500.867 1135.84 495.842C1135.84 490.817 1133.85 485.998 1130.29 482.444C1126.74 478.891 1121.92 476.895 1116.89 476.895C1111.87 476.895 1107.05 478.891 1103.5 482.444C1099.94 485.998 1097.95 490.817 1097.95 495.842C1097.95 500.867 1099.94 505.687 1103.5 509.24C1107.05 512.793 1111.87 514.79 1116.89 514.79ZM1217.95 514.79C1222.97 514.79 1227.79 512.793 1231.35 509.24C1234.9 505.687 1236.89 500.867 1236.89 495.842C1236.89 490.817 1234.9 485.998 1231.35 482.444C1227.79 478.891 1222.97 476.895 1217.95 476.895C1212.92 476.895 1208.1 478.891 1204.55 482.444C1201 485.998 1199 490.817 1199 495.842C1199 500.867 1201 505.687 1204.55 509.24C1208.1 512.793 1212.92 514.79 1217.95 514.79ZM1319 1121.11C1324.03 1121.11 1328.84 1119.11 1332.4 1115.56C1335.95 1112 1337.95 1107.18 1337.95 1102.16C1337.95 1097.13 1335.95 1092.31 1332.4 1088.76C1328.84 1085.21 1324.03 1083.21 1319 1083.21C1313.97 1083.21 1309.16 1085.21 1305.6 1088.76C1302.05 1092.31 1300.05 1097.13 1300.05 1102.16C1300.05 1107.18 1302.05 1112 1305.6 1115.56C1309.16 1119.11 1313.97 1121.11 1319 1121.11ZM1319 1222.16C1324.03 1222.16 1328.84 1220.16 1332.4 1216.61C1335.95 1213.06 1337.95 1208.24 1337.95 1203.21C1337.95 1198.19 1335.95 1193.37 1332.4 1189.81C1328.84 1186.26 1324.03 1184.26 1319 1184.26C1313.97 1184.26 1309.16 1186.26 1305.6 1189.81C1302.05 1193.37 1300.05 1198.19 1300.05 1203.21C1300.05 1208.24 1302.05 1213.06 1305.6 1216.61C1309.16 1220.16 1313.97 1222.16 1319 1222.16ZM1420.05 1323.21C1425.08 1323.21 1429.9 1321.21 1433.45 1317.66C1437 1314.11 1439 1309.29 1439 1304.26C1439 1299.24 1437 1294.42 1433.45 1290.87C1429.9 1287.31 1425.08 1285.32 1420.05 1285.32C1415.03 1285.32 1410.21 1287.31 1406.65 1290.87C1403.1 1294.42 1401.11 1299.24 1401.11 1304.26C1401.11 1309.29 1403.1 1314.11 1406.65 1317.66C1410.21 1321.21 1415.03 1323.21 1420.05 1323.21ZM1521.11 413.737C1526.13 413.737 1530.95 411.741 1534.5 408.187C1538.06 404.634 1540.05 399.815 1540.05 394.789C1540.05 389.764 1538.06 384.945 1534.5 381.392C1530.95 377.838 1526.13 375.842 1521.11 375.842C1516.08 375.842 1511.26 377.838 1507.71 381.392C1504.15 384.945 1502.16 389.764 1502.16 394.789C1502.16 399.815 1504.15 404.634 1507.71 408.187C1511.26 411.741 1516.08 413.737 1521.11 413.737ZM1521.11 615.842C1526.13 615.842 1530.95 613.846 1534.5 610.293C1538.06 606.739 1540.05 601.92 1540.05 596.895C1540.05 591.87 1538.06 587.05 1534.5 583.497C1530.95 579.944 1526.13 577.947 1521.11 577.947C1516.08 577.947 1511.26 579.944 1507.71 583.497C1504.15 587.05 1502.16 591.87 1502.16 596.895C1502.16 601.92 1504.15 606.739 1507.71 610.293C1511.26 613.846 1516.08 615.842 1521.11 615.842ZM1622.16 413.737C1627.18 413.737 1632 411.741 1635.56 408.187C1639.11 404.634 1641.11 399.815 1641.11 394.789C1641.11 389.764 1639.11 384.945 1635.56 381.392C1632 377.838 1627.18 375.842 1622.16 375.842C1617.13 375.842 1612.31 377.838 1608.76 381.392C1605.21 384.945 1603.21 389.764 1603.21 394.789C1603.21 399.815 1605.21 404.634 1608.76 408.187C1612.31 411.741 1617.13 413.737 1622.16 413.737ZM1723.21 312.684C1728.24 312.684 1733.06 310.688 1736.61 307.135C1740.16 303.581 1742.16 298.762 1742.16 293.737C1742.16 288.712 1740.16 283.892 1736.61 280.339C1733.06 276.786 1728.24 274.789 1723.21 274.789C1718.19 274.789 1713.37 276.786 1709.81 280.339C1706.26 283.892 1704.26 288.712 1704.26 293.737C1704.26 298.762 1706.26 303.581 1709.81 307.135C1713.37 310.688 1718.19 312.684 1723.21 312.684ZM1116.89 312.684C1121.92 312.684 1126.74 310.688 1130.29 307.135C1133.85 303.581 1135.84 298.762 1135.84 293.737C1135.84 288.712 1133.85 283.892 1130.29 280.339C1126.74 276.786 1121.92 274.789 1116.89 274.789C1111.87 274.789 1107.05 276.786 1103.5 280.339C1099.94 283.892 1097.95 288.712 1097.95 293.737C1097.95 298.762 1099.94 303.581 1103.5 307.135C1107.05 310.688 1111.87 312.684 1116.89 312.684ZM1116.89 413.737C1121.92 413.737 1126.74 411.741 1130.29 408.187C1133.85 404.634 1135.84 399.815 1135.84 394.789C1135.84 389.764 1133.85 384.945 1130.29 381.392C1126.74 377.838 1121.92 375.842 1116.89 375.842C1111.87 375.842 1107.05 377.838 1103.5 381.392C1099.94 384.945 1097.95 389.764 1097.95 394.789C1097.95 399.815 1099.94 404.634 1103.5 408.187C1107.05 411.741 1111.87 413.737 1116.89 413.737ZM1217.95 211.632C1222.97 211.632 1227.79 209.635 1231.35 206.082C1234.9 202.529 1236.89 197.709 1236.89 192.684C1236.89 187.659 1234.9 182.84 1231.35 179.286C1227.79 175.733 1222.97 173.737 1217.95 173.737C1212.92 173.737 1208.1 175.733 1204.55 179.286C1201 182.84 1199 187.659 1199 192.684C1199 197.709 1201 202.529 1204.55 206.082C1208.1 209.635 1212.92 211.632 1217.95 211.632ZM1824.26 211.632C1829.29 211.632 1834.11 209.635 1837.66 206.082C1841.21 202.529 1843.21 197.709 1843.21 192.684C1843.21 187.659 1841.21 182.84 1837.66 179.286C1834.11 175.733 1829.29 173.737 1824.26 173.737C1819.24 173.737 1814.42 175.733 1810.87 179.286C1807.31 182.84 1805.32 187.659 1805.32 192.684C1805.32 197.709 1807.31 202.529 1810.87 206.082C1814.42 209.635 1819.24 211.632 1824.26 211.632ZM1723.21 -192.579C1728.24 -192.579 1733.06 -194.575 1736.61 -198.129C1740.16 -201.682 1742.16 -206.501 1742.16 -211.526C1742.16 -216.551 1740.16 -221.371 1736.61 -224.924C1733.06 -228.477 1728.24 -230.474 1723.21 -230.474C1718.19 -230.474 1713.37 -228.477 1709.81 -224.924C1706.26 -221.371 1704.26 -216.551 1704.26 -211.526C1704.26 -206.501 1706.26 -201.682 1709.81 -198.129C1713.37 -194.575 1718.19 -192.579 1723.21 -192.579ZM1824.26 -293.632C1829.29 -293.632 1834.11 -295.628 1837.66 -299.181C1841.21 -302.734 1843.21 -307.554 1843.21 -312.579C1843.21 -317.604 1841.21 -322.423 1837.66 -325.977C1834.11 -329.53 1829.29 -331.526 1824.26 -331.526C1819.24 -331.526 1814.42 -329.53 1810.87 -325.977C1807.31 -322.423 1805.32 -317.604 1805.32 -312.579C1805.32 -307.554 1807.31 -302.734 1810.87 -299.181C1814.42 -295.628 1819.24 -293.632 1824.26 -293.632ZM1622.16 -293.632C1627.18 -293.632 1632 -295.628 1635.56 -299.181C1639.11 -302.734 1641.11 -307.554 1641.11 -312.579C1641.11 -317.604 1639.11 -322.423 1635.56 -325.977C1632 -329.53 1627.18 -331.526 1622.16 -331.526C1617.13 -331.526 1612.31 -329.53 1608.76 -325.977C1605.21 -322.423 1603.21 -317.604 1603.21 -312.579C1603.21 -307.554 1605.21 -302.734 1608.76 -299.181C1612.31 -295.628 1617.13 -293.632 1622.16 -293.632ZM1622.16 -394.684C1627.18 -394.684 1632 -396.68 1635.56 -400.234C1639.11 -403.787 1641.11 -408.606 1641.11 -413.632C1641.11 -418.657 1639.11 -423.476 1635.56 -427.029C1632 -430.583 1627.18 -432.579 1622.16 -432.579C1617.13 -432.579 1612.31 -430.583 1608.76 -427.029C1605.21 -423.476 1603.21 -418.657 1603.21 -413.632C1603.21 -408.606 1605.21 -403.787 1608.76 -400.234C1612.31 -396.68 1617.13 -394.684 1622.16 -394.684ZM1521.11 -394.684C1526.13 -394.684 1530.95 -396.68 1534.5 -400.234C1538.06 -403.787 1540.05 -408.606 1540.05 -413.632C1540.05 -418.657 1538.06 -423.476 1534.5 -427.029C1530.95 -430.583 1526.13 -432.579 1521.11 -432.579C1516.08 -432.579 1511.26 -430.583 1507.71 -427.029C1504.15 -423.476 1502.16 -418.657 1502.16 -413.632C1502.16 -408.606 1504.15 -403.787 1507.71 -400.234C1511.26 -396.68 1516.08 -394.684 1521.11 -394.684ZM1420.05 -394.684C1425.08 -394.684 1429.9 -396.68 1433.45 -400.234C1437 -403.787 1439 -408.606 1439 -413.632C1439 -418.657 1437 -423.476 1433.45 -427.029C1429.9 -430.583 1425.08 -432.579 1420.05 -432.579C1415.03 -432.579 1410.21 -430.583 1406.65 -427.029C1403.1 -423.476 1401.11 -418.657 1401.11 -413.632C1401.11 -408.606 1403.1 -403.787 1406.65 -400.234C1410.21 -396.68 1415.03 -394.684 1420.05 -394.684ZM1319 -394.684C1324.03 -394.684 1328.84 -396.68 1332.4 -400.234C1335.95 -403.787 1337.95 -408.606 1337.95 -413.632C1337.95 -418.657 1335.95 -423.476 1332.4 -427.029C1328.84 -430.583 1324.03 -432.579 1319 -432.579C1313.97 -432.579 1309.16 -430.583 1305.6 -427.029C1302.05 -423.476 1300.05 -418.657 1300.05 -413.632C1300.05 -408.606 1302.05 -403.787 1305.6 -400.234C1309.16 -396.68 1313.97 -394.684 1319 -394.684ZM308.474 -293.632C313.499 -293.632 318.318 -295.628 321.871 -299.181C325.425 -302.734 327.421 -307.554 327.421 -312.579C327.421 -317.604 325.425 -322.423 321.871 -325.977C318.318 -329.53 313.499 -331.526 308.474 -331.526C303.449 -331.526 298.629 -329.53 295.076 -325.977C291.523 -322.423 289.526 -317.604 289.526 -312.579C289.526 -307.554 291.523 -302.734 295.076 -299.181C298.629 -295.628 303.449 -293.632 308.474 -293.632ZM106.368 -293.632C111.394 -293.632 116.213 -295.628 119.766 -299.181C123.32 -302.734 125.316 -307.554 125.316 -312.579C125.316 -317.604 123.32 -322.423 119.766 -325.977C116.213 -329.53 111.394 -331.526 106.368 -331.526C101.343 -331.526 96.5239 -329.53 92.9706 -325.977C89.4173 -322.423 87.4211 -317.604 87.4211 -312.579C87.4211 -307.554 89.4173 -302.734 92.9706 -299.181C96.5239 -295.628 101.343 -293.632 106.368 -293.632ZM308.474 -192.579C313.499 -192.579 318.318 -194.575 321.871 -198.129C325.425 -201.682 327.421 -206.501 327.421 -211.526C327.421 -216.551 325.425 -221.371 321.871 -224.924C318.318 -228.477 313.499 -230.474 308.474 -230.474C303.449 -230.474 298.629 -228.477 295.076 -224.924C291.523 -221.371 289.526 -216.551 289.526 -211.526C289.526 -206.501 291.523 -201.682 295.076 -198.129C298.629 -194.575 303.449 -192.579 308.474 -192.579ZM207.421 -91.5263C212.446 -91.5263 217.266 -93.5225 220.819 -97.0758C224.372 -100.629 226.368 -105.449 226.368 -110.474C226.368 -115.499 224.372 -120.318 220.819 -123.871C217.266 -127.425 212.446 -129.421 207.421 -129.421C202.396 -129.421 197.577 -127.425 194.023 -123.871C190.47 -120.318 188.474 -115.499 188.474 -110.474C188.474 -105.449 190.47 -100.629 194.023 -97.0758C197.577 -93.5225 202.396 -91.5263 207.421 -91.5263ZM308.474 -394.684C313.499 -394.684 318.318 -396.68 321.871 -400.234C325.425 -403.787 327.421 -408.606 327.421 -413.632C327.421 -418.657 325.425 -423.476 321.871 -427.029C318.318 -430.583 313.499 -432.579 308.474 -432.579C303.449 -432.579 298.629 -430.583 295.076 -427.029C291.523 -423.476 289.526 -418.657 289.526 -413.632C289.526 -408.606 291.523 -403.787 295.076 -400.234C298.629 -396.68 303.449 -394.684 308.474 -394.684ZM308.474 1121.11C313.499 1121.11 318.318 1119.11 321.871 1115.56C325.425 1112 327.421 1107.18 327.421 1102.16C327.421 1097.13 325.425 1092.31 321.871 1088.76C318.318 1085.21 313.499 1083.21 308.474 1083.21C303.449 1083.21 298.629 1085.21 295.076 1088.76C291.523 1092.31 289.526 1097.13 289.526 1102.16C289.526 1107.18 291.523 1112 295.076 1115.56C298.629 1119.11 303.449 1121.11 308.474 1121.11ZM409.526 1323.21C414.551 1323.21 419.371 1321.21 422.924 1317.66C426.477 1314.11 428.474 1309.29 428.474 1304.26C428.474 1299.24 426.477 1294.42 422.924 1290.87C419.371 1287.31 414.551 1285.32 409.526 1285.32C404.501 1285.32 399.682 1287.31 396.129 1290.87C392.575 1294.42 390.579 1299.24 390.579 1304.26C390.579 1309.29 392.575 1314.11 396.129 1317.66C399.682 1321.21 404.501 1323.21 409.526 1323.21ZM308.474 919C313.499 919 318.318 917.004 321.871 913.451C325.425 909.897 327.421 905.078 327.421 900.053C327.421 895.028 325.425 890.208 321.871 886.655C318.318 883.102 313.499 881.105 308.474 881.105C303.449 881.105 298.629 883.102 295.076 886.655C291.523 890.208 289.526 895.028 289.526 900.053C289.526 905.078 291.523 909.897 295.076 913.451C298.629 917.004 303.449 919 308.474 919ZM308.474 1020.05C313.499 1020.05 318.318 1018.06 321.871 1014.5C325.425 1010.95 327.421 1006.13 327.421 1001.11C327.421 996.08 325.425 991.261 321.871 987.708C318.318 984.154 313.499 982.158 308.474 982.158C303.449 982.158 298.629 984.154 295.076 987.708C291.523 991.261 289.526 996.08 289.526 1001.11C289.526 1006.13 291.523 1010.95 295.076 1014.5C298.629 1018.06 303.449 1020.05 308.474 1020.05ZM207.421 817.947C212.446 817.947 217.266 815.951 220.819 812.398C224.372 808.845 226.368 804.025 226.368 799C226.368 793.975 224.372 789.156 220.819 785.602C217.266 782.049 212.446 780.053 207.421 780.053C202.396 780.053 197.577 782.049 194.023 785.602C190.47 789.156 188.474 793.975 188.474 799C188.474 804.025 190.47 808.845 194.023 812.398C197.577 815.951 202.396 817.947 207.421 817.947ZM712.684 -293.632C717.709 -293.632 722.529 -295.628 726.082 -299.181C729.635 -302.734 731.632 -307.554 731.632 -312.579C731.632 -317.604 729.635 -322.423 726.082 -325.977C722.529 -329.53 717.709 -331.526 712.684 -331.526C707.659 -331.526 702.84 -329.53 699.286 -325.977C695.733 -322.423 693.737 -317.604 693.737 -312.579C693.737 -307.554 695.733 -302.734 699.286 -299.181C702.84 -295.628 707.659 -293.632 712.684 -293.632ZM813.737 -293.632C818.762 -293.632 823.581 -295.628 827.135 -299.181C830.688 -302.734 832.684 -307.554 832.684 -312.579C832.684 -317.604 830.688 -322.423 827.135 -325.977C823.581 -329.53 818.762 -331.526 813.737 -331.526C808.712 -331.526 803.892 -329.53 800.339 -325.977C796.786 -322.423 794.789 -317.604 794.789 -312.579C794.789 -307.554 796.786 -302.734 800.339 -299.181C803.892 -295.628 808.712 -293.632 813.737 -293.632ZM712.684 -394.684C717.709 -394.684 722.529 -396.68 726.082 -400.234C729.635 -403.787 731.632 -408.606 731.632 -413.632C731.632 -418.657 729.635 -423.476 726.082 -427.029C722.529 -430.583 717.709 -432.579 712.684 -432.579C707.659 -432.579 702.84 -430.583 699.286 -427.029C695.733 -423.476 693.737 -418.657 693.737 -413.632C693.737 -408.606 695.733 -403.787 699.286 -400.234C702.84 -396.68 707.659 -394.684 712.684 -394.684ZM914.789 -91.5263C919.815 -91.5263 924.634 -93.5225 928.187 -97.0758C931.741 -100.629 933.737 -105.449 933.737 -110.474C933.737 -115.499 931.741 -120.318 928.187 -123.871C924.634 -127.425 919.815 -129.421 914.789 -129.421C909.764 -129.421 904.945 -127.425 901.392 -123.871C897.838 -120.318 895.842 -115.499 895.842 -110.474C895.842 -105.449 897.838 -100.629 901.392 -97.0758C904.945 -93.5225 909.764 -91.5263 914.789 -91.5263ZM1015.84 -192.579C1020.87 -192.579 1025.69 -194.575 1029.24 -198.129C1032.79 -201.682 1034.79 -206.501 1034.79 -211.526C1034.79 -216.551 1032.79 -221.371 1029.24 -224.924C1025.69 -228.477 1020.87 -230.474 1015.84 -230.474C1010.82 -230.474 1006 -228.477 1002.44 -224.924C998.891 -221.371 996.895 -216.551 996.895 -211.526C996.895 -206.501 998.891 -201.682 1002.44 -198.129C1006 -194.575 1010.82 -192.579 1015.84 -192.579ZM1015.84 -394.684C1020.87 -394.684 1025.69 -396.68 1029.24 -400.234C1032.79 -403.787 1034.79 -408.606 1034.79 -413.632C1034.79 -418.657 1032.79 -423.476 1029.24 -427.029C1025.69 -430.583 1020.87 -432.579 1015.84 -432.579C1010.82 -432.579 1006 -430.583 1002.44 -427.029C998.891 -423.476 996.895 -418.657 996.895 -413.632C996.895 -408.606 998.891 -403.787 1002.44 -400.234C1006 -396.68 1010.82 -394.684 1015.84 -394.684ZM1723.21 716.895C1728.24 716.895 1733.06 714.899 1736.61 711.345C1740.16 707.792 1742.16 702.973 1742.16 697.947C1742.16 692.922 1740.16 688.103 1736.61 684.55C1733.06 680.996 1728.24 679 1723.21 679C1718.19 679 1713.37 680.996 1709.81 684.55C1706.26 688.103 1704.26 692.922 1704.26 697.947C1704.26 702.973 1706.26 707.792 1709.81 711.345C1713.37 714.899 1718.19 716.895 1723.21 716.895ZM1622.16 817.947C1627.18 817.947 1632 815.951 1635.56 812.398C1639.11 808.845 1641.11 804.025 1641.11 799C1641.11 793.975 1639.11 789.156 1635.56 785.602C1632 782.049 1627.18 780.053 1622.16 780.053C1617.13 780.053 1612.31 782.049 1608.76 785.602C1605.21 789.156 1603.21 793.975 1603.21 799C1603.21 804.025 1605.21 808.845 1608.76 812.398C1612.31 815.951 1617.13 817.947 1622.16 817.947ZM1622.16 919C1627.18 919 1632 917.004 1635.56 913.451C1639.11 909.897 1641.11 905.078 1641.11 900.053C1641.11 895.028 1639.11 890.208 1635.56 886.655C1632 883.102 1627.18 881.105 1622.16 881.105C1617.13 881.105 1612.31 883.102 1608.76 886.655C1605.21 890.208 1603.21 895.028 1603.21 900.053C1603.21 905.078 1605.21 909.897 1608.76 913.451C1612.31 917.004 1617.13 919 1622.16 919ZM1622.16 1020.05C1627.18 1020.05 1632 1018.06 1635.56 1014.5C1639.11 1010.95 1641.11 1006.13 1641.11 1001.11C1641.11 996.08 1639.11 991.261 1635.56 987.708C1632 984.154 1627.18 982.158 1622.16 982.158C1617.13 982.158 1612.31 984.154 1608.76 987.708C1605.21 991.261 1603.21 996.08 1603.21 1001.11C1603.21 1006.13 1605.21 1010.95 1608.76 1014.5C1612.31 1018.06 1617.13 1020.05 1622.16 1020.05ZM106.368 615.842C111.394 615.842 116.213 613.846 119.766 610.293C123.32 606.739 125.316 601.92 125.316 596.895C125.316 591.87 123.32 587.05 119.766 583.497C116.213 579.944 111.394 577.947 106.368 577.947C101.343 577.947 96.5239 579.944 92.9706 583.497C89.4173 587.05 87.4211 591.87 87.4211 596.895C87.4211 601.92 89.4173 606.739 92.9706 610.293C96.5239 613.846 101.343 615.842 106.368 615.842ZM106.368 716.895C111.394 716.895 116.213 714.899 119.766 711.345C123.32 707.792 125.316 702.973 125.316 697.947C125.316 692.922 123.32 688.103 119.766 684.55C116.213 680.996 111.394 679 106.368 679C101.343 679 96.5239 680.996 92.9706 684.55C89.4173 688.103 87.4211 692.922 87.4211 697.947C87.4211 702.973 89.4173 707.792 92.9706 711.345C96.5239 714.899 101.343 716.895 106.368 716.895ZM106.368 514.79C111.394 514.79 116.213 512.793 119.766 509.24C123.32 505.687 125.316 500.867 125.316 495.842C125.316 490.817 123.32 485.998 119.766 482.444C116.213 478.891 111.394 476.895 106.368 476.895C101.343 476.895 96.5239 478.891 92.9706 482.444C89.4173 485.998 87.4211 490.817 87.4211 495.842C87.4211 500.867 89.4173 505.687 92.9706 509.24C96.5239 512.793 101.343 514.79 106.368 514.79ZM207.421 514.79C212.446 514.79 217.266 512.793 220.819 509.24C224.372 505.687 226.368 500.867 226.368 495.842C226.368 490.817 224.372 485.998 220.819 482.444C217.266 478.891 212.446 476.895 207.421 476.895C202.396 476.895 197.577 478.891 194.023 482.444C190.47 485.998 188.474 490.817 188.474 495.842C188.474 500.867 190.47 505.687 194.023 509.24C197.577 512.793 202.396 514.79 207.421 514.79ZM106.368 9.52631C111.394 9.52631 116.213 7.53009 119.766 3.97681C123.32 0.423462 125.316 -4.39587 125.316 -9.42102C125.316 -14.4462 123.32 -19.2655 119.766 -22.8188C116.213 -26.3722 111.394 -28.3684 106.368 -28.3684C101.343 -28.3684 96.5239 -26.3722 92.9706 -22.8188C89.4173 -19.2655 87.4211 -14.4462 87.4211 -9.42102C87.4211 -4.39587 89.4173 0.423462 92.9706 3.97681C96.5239 7.53009 101.343 9.52631 106.368 9.52631ZM308.474 413.737C313.499 413.737 318.318 411.741 321.871 408.187C325.425 404.634 327.421 399.815 327.421 394.789C327.421 389.764 325.425 384.945 321.871 381.392C318.318 377.838 313.499 375.842 308.474 375.842C303.449 375.842 298.629 377.838 295.076 381.392C291.523 384.945 289.526 389.764 289.526 394.789C289.526 399.815 291.523 404.634 295.076 408.187C298.629 411.741 303.449 413.737 308.474 413.737ZM409.526 312.684C414.551 312.684 419.371 310.688 422.924 307.135C426.477 303.581 428.474 298.762 428.474 293.737C428.474 288.712 426.477 283.892 422.924 280.339C419.371 276.786 414.551 274.789 409.526 274.789C404.501 274.789 399.682 276.786 396.129 280.339C392.575 283.892 390.579 288.712 390.579 293.737C390.579 298.762 392.575 303.581 396.129 307.135C399.682 310.688 404.501 312.684 409.526 312.684Z" fill="white" fill-opacity="0.04"/>
</svg>
