<svg width="103" height="77" viewBox="0 0 103 77" fill="none" xmlns="http://www.w3.org/2000/svg">
<mask id="path-1-inside-1_11_10" fill="white">
<path d="M27 7.70588C27 4.00232 31.4772 1 37 1C42.5228 1 47 4.00232 47 7.70588V58H27V7.70588Z"/>
</mask>
<path d="M47 58V78H67V58H47ZM27 58H7V78H27V58ZM47 7.70588C47 14.567 42.8494 18.3804 41.068 19.575C39.1573 20.8563 37.6601 21 37 21V-19C30.8171 -19 24.3199 -17.3551 18.7899 -13.6468C13.3892 -10.0251 7 -2.85876 7 7.70588H47ZM37 21C36.3399 21 34.8427 20.8563 32.932 19.575C31.1506 18.3804 27 14.567 27 7.70588H67C67 -2.85876 60.6108 -10.0251 55.2101 -13.6468C49.6801 -17.3551 43.1829 -19 37 -19V21ZM27 7.70588V58H67V7.70588H27ZM47 38H27V78H47V38ZM47 58V7.70588H7V58H47Z" fill="white" mask="url(#path-1-inside-1_11_10)"/>
<path d="M37.6541 37C31.1261 58.1 75.1875 81.6824 93 55.3074" stroke="white" stroke-width="20" stroke-linecap="round"/>
<path d="M11 66C59.2814 76.5629 14.557 -6.72071 91.7722 14.015" stroke="#FFD700" stroke-width="20" stroke-linecap="round"/>
</svg>
